<svg width="226" height="94" viewBox="0 0 226 94" fill="none" xmlns="http://www.w3.org/2000/svg">
<g filter="url(#filter0_d_195_2601)">
<g clip-path="url(#clip0_195_2601)">
<rect x="25.7247" y="25.7247" width="174" height="41.6629" rx="3.47313" fill="#230C05"/>
<g filter="url(#filter1_d_195_2601)">
<path d="M96.46 48.7252H98.214L99.4487 50.3349L100.031 51.0503L101.999 53.6178H100.176L98.8602 51.9042L98.4102 51.2811L96.46 48.7252ZM102.38 46.6481C102.38 47.9097 102.149 48.9944 101.687 49.9022C101.226 50.8061 100.593 51.5023 99.7891 51.9908C98.989 52.4754 98.0794 52.7177 97.0601 52.7177C96.0369 52.7177 95.1234 52.4754 94.3195 51.9908C93.5195 51.5023 92.8886 50.8041 92.4271 49.8964C91.9655 48.9886 91.7347 47.9059 91.7347 46.6481C91.7347 45.3865 91.9655 44.3037 92.4271 43.3998C92.8886 42.4921 93.5195 41.7959 94.3195 41.3112C95.1234 40.8227 96.0369 40.5785 97.0601 40.5785C98.0794 40.5785 98.989 40.8227 99.7891 41.3112C100.593 41.7959 101.226 42.4921 101.687 43.3998C102.149 44.3037 102.38 45.3865 102.38 46.6481ZM100.614 46.6481C100.614 45.6865 100.458 44.8768 100.147 44.2191C99.8391 43.5575 99.416 43.0575 98.8775 42.719C98.3428 42.3767 97.737 42.2055 97.0601 42.2055C96.3793 42.2055 95.7715 42.3767 95.2369 42.719C94.7022 43.0575 94.2791 43.5575 93.9676 44.2191C93.6598 44.8768 93.506 45.6865 93.506 46.6481C93.506 47.6097 93.6598 48.4213 93.9676 49.0829C94.2791 49.7406 94.7022 50.2407 95.2369 50.583C95.7715 50.9215 96.3793 51.0907 97.0601 51.0907C97.737 51.0907 98.3428 50.9215 98.8775 50.583C99.416 50.2407 99.8391 49.7406 100.147 49.0829C100.458 48.4213 100.614 47.6097 100.614 46.6481ZM113.663 40.74H115.452V48.5117C115.452 49.3387 115.258 50.0714 114.869 50.7099C114.481 51.3446 113.934 51.8446 113.23 52.21C112.527 52.5716 111.702 52.7523 110.755 52.7523C109.813 52.7523 108.99 52.5716 108.286 52.21C107.582 51.8446 107.036 51.3446 106.647 50.7099C106.259 50.0714 106.065 49.3387 106.065 48.5117V40.74H107.847V48.3675C107.847 48.9021 107.965 49.3771 108.199 49.7925C108.438 50.208 108.774 50.5349 109.209 50.7734C109.644 51.008 110.159 51.1253 110.755 51.1253C111.355 51.1253 111.873 51.008 112.307 50.7734C112.746 50.5349 113.08 50.208 113.311 49.7925C113.546 49.3771 113.663 48.9021 113.663 48.3675V40.74ZM121.289 40.74V52.5562H119.506V40.74H121.289ZM124.765 42.2748V40.74H133.909V42.2748H130.223V52.5562H128.446V42.2748H124.765Z" fill="#E4E4E4"/>
</g>
</g>
<rect x="26.2325" y="26.2324" width="172.985" height="40.6475" rx="2.96541" stroke="#7A0909" stroke-width="1.01545"/>
</g>
<defs>
<filter id="filter0_d_195_2601" x="1.14441e-05" y="-3.8147e-06" width="225.449" height="93.1124" filterUnits="userSpaceOnUse" color-interpolation-filters="sRGB">
<feFlood flood-opacity="0" result="BackgroundImageFix"/>
<feColorMatrix in="SourceAlpha" type="matrix" values="0 0 0 0 0 0 0 0 0 0 0 0 0 0 0 0 0 0 127 0" result="hardAlpha"/>
<feOffset/>
<feGaussianBlur stdDeviation="12.8624"/>
<feComposite in2="hardAlpha" operator="out"/>
<feColorMatrix type="matrix" values="0 0 0 0 0.478431 0 0 0 0 0.0352941 0 0 0 0 0.0352941 0 0 0 1 0"/>
<feBlend mode="normal" in2="BackgroundImageFix" result="effect1_dropShadow_195_2601"/>
<feBlend mode="normal" in="SourceGraphic" in2="effect1_dropShadow_195_2601" result="shape"/>
</filter>
<filter id="filter1_d_195_2601" x="74.3691" y="26.686" width="76.9061" height="47.7706" filterUnits="userSpaceOnUse" color-interpolation-filters="sRGB">
<feFlood flood-opacity="0" result="BackgroundImageFix"/>
<feColorMatrix in="SourceAlpha" type="matrix" values="0 0 0 0 0 0 0 0 0 0 0 0 0 0 0 0 0 0 127 0" result="hardAlpha"/>
<feOffset dy="3.47313"/>
<feGaussianBlur stdDeviation="8.68283"/>
<feComposite in2="hardAlpha" operator="out"/>
<feColorMatrix type="matrix" values="0 0 0 0 0.972549 0 0 0 0 0.52549 0 0 0 0 0 0 0 0 1 0"/>
<feBlend mode="normal" in2="BackgroundImageFix" result="effect1_dropShadow_195_2601"/>
<feBlend mode="normal" in="SourceGraphic" in2="effect1_dropShadow_195_2601" result="shape"/>
</filter>
<clipPath id="clip0_195_2601">
<rect x="25.7247" y="25.7247" width="174" height="41.6629" rx="3.47313" fill="white"/>
</clipPath>
</defs>
</svg>
