<svg width="151" height="151" viewBox="0 0 151 151" fill="none" xmlns="http://www.w3.org/2000/svg">
<mask id="path-1-inside-1_197_243" fill="white">
<path d="M50 108.013C50 103.595 46.4183 100.013 42 100.013L8 100.013C3.58172 100.013 -4.68426e-06 96.4316 -5.07052e-06 92.0133L-8.0429e-06 58.0133C-8.42915e-06 53.595 3.58172 50.0133 7.99999 50.0133L42 50.0133C46.4183 50.0133 50 46.4316 50 42.0133L50 8.01331C50 3.59504 53.5817 0.0133141 58 0.0133137L92 0.0133107C96.4183 0.0133103 100 3.59504 100 8.01331L100 42.0133C100 46.4316 103.582 50.0133 108 50.0133L142 50.0133C146.418 50.0133 150 53.595 150 58.0133L150 92.0133C150 96.4316 146.418 100.013 142 100.013L108 100.013C103.582 100.013 100 103.595 100 108.013L100 142.013C100 146.432 96.4183 150.013 92 150.013L58 150.013C53.5817 150.013 50 146.432 50 142.013L50 108.013Z"/>
</mask>
<path d="M50 108.013C50 103.595 46.4183 100.013 42 100.013L8 100.013C3.58172 100.013 -4.68426e-06 96.4316 -5.07052e-06 92.0133L-8.0429e-06 58.0133C-8.42915e-06 53.595 3.58172 50.0133 7.99999 50.0133L42 50.0133C46.4183 50.0133 50 46.4316 50 42.0133L50 8.01331C50 3.59504 53.5817 0.0133141 58 0.0133137L92 0.0133107C96.4183 0.0133103 100 3.59504 100 8.01331L100 42.0133C100 46.4316 103.582 50.0133 108 50.0133L142 50.0133C146.418 50.0133 150 53.595 150 58.0133L150 92.0133C150 96.4316 146.418 100.013 142 100.013L108 100.013C103.582 100.013 100 103.595 100 108.013L100 142.013C100 146.432 96.4183 150.013 92 150.013L58 150.013C53.5817 150.013 50 146.432 50 142.013L50 108.013Z" fill="url(#paint0_linear_197_243)"/>
<path d="M108 100.013L108 104.013L108 100.013ZM-8.0429e-06 58.0133L-4.00001 58.0133L-8.0429e-06 58.0133ZM8 100.013L8 96.0133L8 100.013ZM-5.07052e-06 92.0133L3.99999 92.0133L-5.07052e-06 92.0133ZM42 100.013L42 96.0133L8 96.0133L8 100.013L8 104.013L42 104.013L42 100.013ZM-5.07052e-06 92.0133L3.99999 92.0133L3.99999 58.0133L-8.0429e-06 58.0133L-4.00001 58.0133L-4.00001 92.0133L-5.07052e-06 92.0133ZM7.99999 50.0133L7.99999 54.0133L42 54.0133L42 50.0133L42 46.0133L7.99999 46.0133L7.99999 50.0133ZM50 42.0133L54 42.0133L54 8.01331L50 8.01331L46 8.01331L46 42.0133L50 42.0133ZM58 0.0133137L58 4.01331L92 4.01331L92 0.0133107L92 -3.98669L58 -3.98669L58 0.0133137ZM100 8.01331L96 8.01331L96 42.0133L100 42.0133L104 42.0133L104 8.01331L100 8.01331ZM108 50.0133L108 54.0133L142 54.0133L142 50.0133L142 46.0133L108 46.0133L108 50.0133ZM150 58.0133L146 58.0133L146 92.0133L150 92.0133L154 92.0133L154 58.0133L150 58.0133ZM142 100.013L142 96.0133L108 96.0133L108 100.013L108 104.013L142 104.013L142 100.013ZM100 108.013L96 108.013L96 142.013L100 142.013L104 142.013L104 108.013L100 108.013ZM92 150.013L92 146.013L58 146.013L58 150.013L58 154.013L92 154.013L92 150.013ZM50 142.013L54 142.013L54 108.013L50 108.013L46 108.013L46 142.013L50 142.013ZM58 150.013L58 146.013C55.7909 146.013 54 144.222 54 142.013L50 142.013L46 142.013C46 148.641 51.3726 154.013 58 154.013L58 150.013ZM100 142.013L96 142.013C96 144.222 94.2091 146.013 92 146.013L92 150.013L92 154.013C98.6274 154.013 104 148.641 104 142.013L100 142.013ZM108 100.013L108 96.0133C101.373 96.0133 96 101.386 96 108.013L100 108.013L104 108.013C104 105.804 105.791 104.013 108 104.013L108 100.013ZM150 92.0133L146 92.0133C146 94.2224 144.209 96.0133 142 96.0133L142 100.013L142 104.013C148.627 104.013 154 98.6407 154 92.0133L150 92.0133ZM142 50.0133L142 54.0133C144.209 54.0133 146 55.8042 146 58.0133L150 58.0133L154 58.0133C154 51.3859 148.627 46.0133 142 46.0133L142 50.0133ZM100 42.0133L96 42.0133C96 48.6407 101.373 54.0133 108 54.0133L108 50.0133L108 46.0133C105.791 46.0133 104 44.2224 104 42.0133L100 42.0133ZM92 0.0133107L92 4.01331C94.2091 4.01331 96 5.80417 96 8.01331L100 8.01331L104 8.01331C104 1.3859 98.6274 -3.98669 92 -3.98669L92 0.0133107ZM50 8.01331L54 8.01331C54 5.80418 55.7909 4.01331 58 4.01331L58 0.0133137L58 -3.98669C51.3726 -3.98669 46 1.3859 46 8.01331L50 8.01331ZM42 50.0133L42 54.0133C48.6274 54.0133 54 48.6407 54 42.0133L50 42.0133L46 42.0133C46 44.2225 44.2091 46.0133 42 46.0133L42 50.0133ZM-8.0429e-06 58.0133L3.99999 58.0133C3.99999 55.8042 5.79085 54.0133 7.99999 54.0133L7.99999 50.0133L7.99999 46.0133C1.37258 46.0133 -4.00001 51.3859 -4.00001 58.0133L-8.0429e-06 58.0133ZM8 100.013L8 96.0133C5.79086 96.0133 4 94.2225 3.99999 92.0133L-5.07052e-06 92.0133L-4.00001 92.0133C-4 98.6407 1.37259 104.013 8 104.013L8 100.013ZM42 100.013L42 104.013C44.2091 104.013 46 105.804 46 108.013L50 108.013L54 108.013C54 101.386 48.6274 96.0133 42 96.0133L42 100.013Z" fill="#272727" mask="url(#path-1-inside-1_197_243)"/>
<circle cx="75" cy="75.0133" r="15" fill="url(#paint1_linear_197_243)" stroke="#272727" stroke-width="4"/>
<path d="M136.111 73.7283C136.685 74.0823 136.685 74.9177 136.111 75.2717L118.355 86.2066C117.751 86.5784 116.973 86.1441 116.973 85.4349L116.973 63.5651C116.973 62.8559 117.751 62.4216 118.355 62.7934L136.111 73.7283Z" fill="#6A0303" stroke="#272727" stroke-width="2"/>
<path d="M17.4293 76.2717C16.8546 75.9177 16.8546 75.0823 17.4293 74.7283L35.1854 63.7934C35.7892 63.4216 36.5669 63.8559 36.5669 64.5651V86.4349C36.5669 87.1441 35.7892 87.5784 35.1854 87.2066L17.4293 76.2717Z" fill="#6A0303" stroke="#272727" stroke-width="2"/>
<path d="M73.9046 20.253C74.2585 19.6783 75.094 19.6783 75.4479 20.253L86.3829 38.0092C86.7547 38.613 86.3203 39.3906 85.6112 39.3906H63.7413C63.0322 39.3906 62.5978 38.613 62.9697 38.0092L73.9046 20.253Z" fill="#6A0303" stroke="#272727" stroke-width="2"/>
<path d="M75.4479 131.934C75.094 132.509 74.2585 132.509 73.9046 131.934L62.9697 114.178C62.5978 113.575 63.0322 112.797 63.7413 112.797H85.6112C86.3203 112.797 86.7547 113.575 86.3829 114.178L75.4479 131.934Z" fill="#6A0303" stroke="#272727" stroke-width="2"/>
<defs>
<linearGradient id="paint0_linear_197_243" x1="75" y1="150.013" x2="75" y2="0.0133275" gradientUnits="userSpaceOnUse">
<stop stop-color="#2A2A2A"/>
<stop offset="0.956731" stop-color="#909090" stop-opacity="0.39"/>
</linearGradient>
<linearGradient id="paint1_linear_197_243" x1="75" y1="60.0133" x2="75" y2="90.0133" gradientUnits="userSpaceOnUse">
<stop stop-color="#2A2A2A"/>
<stop offset="0.956731" stop-color="#909090" stop-opacity="0.39"/>
</linearGradient>
</defs>
</svg>
