<svg width="117" height="113" viewBox="0 0 117 113" fill="none" xmlns="http://www.w3.org/2000/svg">
<g filter="url(#filter0_d_234_231)">
<path d="M103.291 10C105.339 10.0001 107 11.6606 107 13.709V99.0186C107 101.067 105.339 102.727 103.291 102.728H13.709C11.6607 102.727 10.0002 101.067 10 99.0186V13.709C10.0001 11.6606 11.6606 10.0001 13.709 10H103.291Z" fill="url(#paint0_linear_234_231)" fill-opacity="0.2" shape-rendering="crispEdges"/>
</g>
<g filter="url(#filter1_d_234_231)">
<circle cx="58" cy="48" r="17" fill="#535353" fill-opacity="0.53" shape-rendering="crispEdges"/>
</g>
<path d="M51.2108 44.8571L52.5367 47.0502L53.8626 44.8571H54.5557L52.9016 47.4286L54.5557 50H53.8626L52.5367 47.8772L51.2108 50H50.5211L52.155 47.4286L50.5211 44.8571H51.2108ZM56.1737 44.8571L57.4996 47.0502L58.8255 44.8571H59.5186L57.8645 47.4286L59.5186 50H58.8255L57.4996 47.8772L56.1737 50H55.484L57.1179 47.4286L55.484 44.8571H56.1737ZM61.1366 44.8571L62.4625 47.0502L63.7884 44.8571H64.4814L62.8274 47.4286L64.4814 50H63.7884L62.4625 47.8772L61.1366 50H60.4468L62.0808 47.4286L60.4468 44.8571H61.1366Z" fill="#EEAA46"/>
<path d="M29.2988 90.3496H29.8408C29.8604 90.5059 29.9092 90.6621 29.9873 90.8184C30.0687 90.9714 30.1826 91.113 30.3291 91.2432C30.4788 91.3701 30.6628 91.4727 30.8809 91.5508C31.1022 91.6257 31.3626 91.6631 31.6621 91.6631C32.0169 91.6631 32.3245 91.6061 32.585 91.4922C32.8486 91.375 33.0521 91.2139 33.1953 91.0088C33.3385 90.8005 33.4102 90.5612 33.4102 90.291C33.4102 89.9264 33.293 89.6481 33.0586 89.4561C32.8275 89.264 32.4808 89.1061 32.0186 88.9824L31.0371 88.7188C30.7116 88.6341 30.4349 88.5153 30.207 88.3623C29.9792 88.2093 29.805 88.0221 29.6846 87.8008C29.5674 87.5762 29.5088 87.3158 29.5088 87.0195C29.5088 86.6615 29.5999 86.3457 29.7822 86.0723C29.9645 85.7988 30.2184 85.584 30.5439 85.4277C30.8727 85.2715 31.2552 85.1934 31.6914 85.1934C32.1276 85.1934 32.502 85.2682 32.8145 85.418C33.1302 85.5645 33.376 85.763 33.5518 86.0137C33.7275 86.2643 33.8252 86.5443 33.8447 86.8535H33.2979C33.2751 86.6484 33.2002 86.4564 33.0732 86.2773C32.9495 86.0983 32.7721 85.9535 32.541 85.8428C32.3099 85.7321 32.0234 85.6768 31.6816 85.6768C31.1803 85.6768 30.7832 85.8005 30.4902 86.0479C30.1973 86.292 30.0508 86.611 30.0508 87.0049C30.0508 87.3337 30.1517 87.5924 30.3535 87.7812C30.5553 87.9701 30.8451 88.1149 31.2227 88.2158L32.1748 88.4746C32.5719 88.582 32.9007 88.7122 33.1611 88.8652C33.4248 89.015 33.6217 89.2021 33.752 89.4268C33.8854 89.6481 33.9521 89.9248 33.9521 90.2568C33.9521 90.641 33.8545 90.9746 33.6592 91.2578C33.4639 91.541 33.1888 91.7607 32.834 91.917C32.4824 92.07 32.0706 92.1465 31.5986 92.1465C31.2243 92.1465 30.8955 92.096 30.6123 91.9951C30.3324 91.8942 30.0964 91.7575 29.9043 91.585C29.7155 91.4124 29.5706 91.2204 29.4697 91.0088C29.3688 90.7939 29.3118 90.5742 29.2988 90.3496ZM35.2461 89.876V89.0215C35.2461 88.5625 35.3307 88.1702 35.5 87.8447C35.6725 87.5192 35.9102 87.2702 36.2129 87.0977C36.5189 86.9251 36.8721 86.8389 37.2725 86.8389C37.6859 86.8389 38.0293 86.9154 38.3027 87.0684C38.5794 87.2214 38.7894 87.415 38.9326 87.6494C39.0758 87.8805 39.1523 88.1165 39.1621 88.3574H38.6494C38.6234 88.2012 38.5599 88.0433 38.459 87.8838C38.3613 87.721 38.2165 87.5859 38.0244 87.4785C37.8324 87.3711 37.5833 87.3174 37.2773 87.3174C36.8118 87.3174 36.4424 87.4704 36.1689 87.7764C35.8988 88.0824 35.7637 88.5137 35.7637 89.0703V89.8564C35.7637 90.4131 35.9004 90.8444 36.1738 91.1504C36.4505 91.4531 36.8249 91.6045 37.2969 91.6045C37.6061 91.6045 37.8551 91.5573 38.0439 91.4629C38.2327 91.3685 38.376 91.248 38.4736 91.1016C38.5713 90.9518 38.6364 90.7988 38.6689 90.6426H39.1816C39.1686 90.8639 39.0938 91.0869 38.957 91.3115C38.8236 91.5329 38.6201 91.7168 38.3467 91.8633C38.0732 92.0098 37.7184 92.083 37.2822 92.083C36.8688 92.083 36.5091 91.9967 36.2031 91.8242C35.9004 91.6517 35.6644 91.401 35.4951 91.0723C35.3291 90.7435 35.2461 90.3447 35.2461 89.876ZM40.7393 92V86.9219H41.2617V87.835H41.291C41.3268 87.6982 41.4001 87.5534 41.5107 87.4004C41.6214 87.2474 41.7793 87.1172 41.9844 87.0098C42.1895 86.8991 42.4482 86.8438 42.7607 86.8438C42.8421 86.8438 42.9137 86.847 42.9756 86.8535C43.0407 86.86 43.0928 86.8665 43.1318 86.873V87.3662C43.0993 87.3597 43.0456 87.3532 42.9707 87.3467C42.8958 87.3369 42.8063 87.332 42.7021 87.332C42.4255 87.332 42.1781 87.3906 41.96 87.5078C41.7419 87.625 41.571 87.7959 41.4473 88.0205C41.3236 88.2451 41.2617 88.5186 41.2617 88.8408V92H40.7393ZM45.6807 92.083C45.1891 92.083 44.7904 91.9447 44.4844 91.668C44.1784 91.3913 44.0254 91.0202 44.0254 90.5547C44.0254 90.125 44.1719 89.7767 44.4648 89.5098C44.7611 89.2428 45.1956 89.1094 45.7686 89.1094H47.2529V88.46C47.2529 88.0628 47.1357 87.7715 46.9014 87.5859C46.667 87.4004 46.3594 87.3076 45.9785 87.3076C45.7051 87.3076 45.4821 87.3467 45.3096 87.4248C45.1403 87.4997 45.0101 87.5957 44.9189 87.7129C44.8311 87.8268 44.7741 87.944 44.748 88.0645H44.2354C44.2516 87.8887 44.3021 87.7259 44.3867 87.5762C44.4714 87.4264 44.5885 87.2962 44.7383 87.1855C44.888 87.0749 45.0687 86.9902 45.2803 86.9316C45.4919 86.8698 45.7327 86.8389 46.0029 86.8389C46.3447 86.8389 46.6491 86.8942 46.916 87.0049C47.1829 87.1156 47.3929 87.2881 47.5459 87.5225C47.7021 87.7536 47.7803 88.0531 47.7803 88.4209V92H47.2725V91.2188H47.2432C47.1846 91.3392 47.0902 91.4661 46.96 91.5996C46.8298 91.7331 46.6589 91.847 46.4473 91.9414C46.2389 92.0358 45.9834 92.083 45.6807 92.083ZM45.7832 91.6143C46.0534 91.6143 46.2992 91.5573 46.5205 91.4434C46.7419 91.3294 46.9193 91.1715 47.0527 90.9697C47.1862 90.7679 47.2529 90.5352 47.2529 90.2715V89.5586H45.7734C45.3503 89.5586 45.0426 89.6514 44.8506 89.8369C44.6618 90.0225 44.5674 90.2585 44.5674 90.5449C44.5674 90.8867 44.6846 91.1504 44.9189 91.3359C45.1533 91.5215 45.4414 91.6143 45.7832 91.6143ZM49.8408 86.9219V85.6719H50.3584V86.9219H51.6719V87.3662H50.3584V90.7646C50.3584 91.0837 50.4235 91.3018 50.5537 91.4189C50.6872 91.5329 50.9248 91.5898 51.2666 91.5898C51.3317 91.5898 51.4163 91.5866 51.5205 91.5801C51.6247 91.5703 51.7012 91.5638 51.75 91.5605V92.0049C51.6979 92.0146 51.6068 92.0228 51.4766 92.0293C51.3496 92.0391 51.2471 92.0439 51.1689 92.0439C50.8141 92.0439 50.5407 92 50.3486 91.9121C50.1566 91.8242 50.0231 91.6842 49.9482 91.4922C49.8766 91.3001 49.8408 91.0511 49.8408 90.7451V87.3662H48.9326V86.9219H49.8408ZM52.8828 89.876V89.0215C52.8828 88.5625 52.9674 88.1702 53.1367 87.8447C53.3092 87.5192 53.5469 87.2702 53.8496 87.0977C54.1556 86.9251 54.5088 86.8389 54.9092 86.8389C55.3226 86.8389 55.666 86.9154 55.9395 87.0684C56.2161 87.2214 56.4261 87.415 56.5693 87.6494C56.7126 87.8805 56.7891 88.1165 56.7988 88.3574H56.2861C56.2601 88.2012 56.1966 88.0433 56.0957 87.8838C55.998 87.721 55.8532 87.5859 55.6611 87.4785C55.4691 87.3711 55.2201 87.3174 54.9141 87.3174C54.4486 87.3174 54.0791 87.4704 53.8057 87.7764C53.5355 88.0824 53.4004 88.5137 53.4004 89.0703V89.8564C53.4004 90.4131 53.5371 90.8444 53.8105 91.1504C54.0872 91.4531 54.4616 91.6045 54.9336 91.6045C55.2428 91.6045 55.4919 91.5573 55.6807 91.4629C55.8695 91.3685 56.0127 91.248 56.1104 91.1016C56.208 90.9518 56.2731 90.7988 56.3057 90.6426H56.8184C56.8053 90.8639 56.7305 91.0869 56.5938 91.3115C56.4603 91.5329 56.2568 91.7168 55.9834 91.8633C55.71 92.0098 55.3551 92.083 54.9189 92.083C54.5055 92.083 54.1458 91.9967 53.8398 91.8242C53.5371 91.6517 53.3011 91.401 53.1318 91.0723C52.9658 90.7435 52.8828 90.3447 52.8828 89.876ZM58.3516 92V84.9883H58.8691V87.9033H58.8984C58.944 87.7568 59.0286 87.6006 59.1523 87.4346C59.2793 87.2686 59.4567 87.1286 59.6846 87.0146C59.9124 86.8975 60.1973 86.8389 60.5391 86.8389C61.0371 86.8389 61.4505 86.987 61.7793 87.2832C62.1081 87.5794 62.2725 88.014 62.2725 88.5869V92H61.75V88.7285C61.75 88.4453 61.6979 88.1979 61.5938 87.9863C61.4896 87.7715 61.3382 87.6055 61.1396 87.4883C60.9411 87.3678 60.7018 87.3076 60.4219 87.3076C60.0801 87.3076 59.7936 87.389 59.5625 87.5518C59.3314 87.7113 59.1572 87.9229 59.04 88.1865C58.9261 88.4502 58.8691 88.735 58.8691 89.041V92H58.3516ZM66.6377 86.9219V85.6719H67.1553V86.9219H68.4688V87.3662H67.1553V90.7646C67.1553 91.0837 67.2204 91.3018 67.3506 91.4189C67.484 91.5329 67.7217 91.5898 68.0635 91.5898C68.1286 91.5898 68.2132 91.5866 68.3174 91.5801C68.4215 91.5703 68.498 91.5638 68.5469 91.5605V92.0049C68.4948 92.0146 68.4036 92.0228 68.2734 92.0293C68.1465 92.0391 68.0439 92.0439 67.9658 92.0439C67.611 92.0439 67.3376 92 67.1455 91.9121C66.9535 91.8242 66.82 91.6842 66.7451 91.4922C66.6735 91.3001 66.6377 91.0511 66.6377 90.7451V87.3662H65.7295V86.9219H66.6377ZM71.7793 86.8389C72.1699 86.8389 72.5231 86.9251 72.8389 87.0977C73.1579 87.2669 73.4102 87.5176 73.5957 87.8496C73.7845 88.1816 73.8789 88.5869 73.8789 89.0654V89.8662C73.8789 90.348 73.7845 90.7533 73.5957 91.082C73.4102 91.4108 73.1595 91.6598 72.8438 91.8291C72.528 91.9984 72.1732 92.083 71.7793 92.083C71.3822 92.083 71.0241 91.9984 70.7051 91.8291C70.3893 91.6598 70.1387 91.4108 69.9531 91.082C69.7708 90.7533 69.6797 90.348 69.6797 89.8662V89.0654C69.6797 88.5902 69.7708 88.1882 69.9531 87.8594C70.1387 87.5273 70.3893 87.2751 70.7051 87.1025C71.0241 86.9268 71.3822 86.8389 71.7793 86.8389ZM71.7793 87.3076C71.4733 87.3076 71.2015 87.3792 70.9639 87.5225C70.7262 87.6657 70.5391 87.8724 70.4023 88.1426C70.2689 88.4128 70.2021 88.7415 70.2021 89.1289V89.8076C70.2021 90.195 70.2673 90.5238 70.3975 90.7939C70.5309 91.0609 70.7165 91.2643 70.9541 91.4043C71.1917 91.5443 71.4684 91.6143 71.7842 91.6143C72.0934 91.6143 72.3652 91.5459 72.5996 91.4092C72.8372 91.2692 73.0228 91.0641 73.1562 90.7939C73.2897 90.5238 73.3564 90.195 73.3564 89.8076V89.1289C73.3564 88.7448 73.2881 88.4176 73.1514 88.1475C73.0179 87.874 72.8324 87.6657 72.5947 87.5225C72.3571 87.3792 72.0853 87.3076 71.7793 87.3076ZM83.6738 86.9219L82.292 92H81.7744L80.4268 87.6787H80.4072L79.0693 92H78.5518L77.126 86.9219H77.7168L78.8008 91.2773H78.8301L80.1582 86.9219H80.666L82.0137 91.2773H82.043L83.1416 86.9219H83.6738ZM85.002 92V86.9219H85.5195V92H85.002ZM84.8262 85.3936C84.8262 85.2666 84.8669 85.1624 84.9482 85.0811C85.0329 84.9964 85.1354 84.9541 85.2559 84.9541C85.3828 84.9541 85.487 84.9964 85.5684 85.0811C85.653 85.1624 85.6953 85.2666 85.6953 85.3936C85.6953 85.514 85.653 85.6165 85.5684 85.7012C85.487 85.7826 85.3828 85.8232 85.2559 85.8232C85.1354 85.8232 85.0329 85.7826 84.9482 85.7012C84.8669 85.6165 84.8262 85.514 84.8262 85.3936ZM87.4629 92V86.9219H87.9854V87.9033H88.0146C88.0635 87.7471 88.1481 87.5876 88.2686 87.4248C88.389 87.2588 88.5599 87.1204 88.7812 87.0098C89.0026 86.8958 89.2858 86.8389 89.6309 86.8389C90.1387 86.8389 90.5537 86.987 90.876 87.2832C91.2015 87.5762 91.3643 88.0091 91.3643 88.582V92H90.8467V88.7236C90.8467 88.4404 90.7946 88.193 90.6904 87.9814C90.5895 87.7699 90.4414 87.6055 90.2461 87.4883C90.054 87.3678 89.8164 87.3076 89.5332 87.3076C89.1882 87.3076 88.9001 87.389 88.6689 87.5518C88.4411 87.7113 88.2702 87.9229 88.1562 88.1865C88.0423 88.4502 87.9854 88.735 87.9854 89.041V92H87.4629Z" fill="#D7D6D6"/>
<defs>
<filter id="filter0_d_234_231" x="6" y="10" width="105" height="100.728" filterUnits="userSpaceOnUse" color-interpolation-filters="sRGB">
<feFlood flood-opacity="0" result="BackgroundImageFix"/>
<feColorMatrix in="SourceAlpha" type="matrix" values="0 0 0 0 0 0 0 0 0 0 0 0 0 0 0 0 0 0 127 0" result="hardAlpha"/>
<feOffset dy="4"/>
<feGaussianBlur stdDeviation="2"/>
<feComposite in2="hardAlpha" operator="out"/>
<feColorMatrix type="matrix" values="0 0 0 0 0 0 0 0 0 0 0 0 0 0 0 0 0 0 0.25 0"/>
<feBlend mode="normal" in2="BackgroundImageFix" result="effect1_dropShadow_234_231"/>
<feBlend mode="normal" in="SourceGraphic" in2="effect1_dropShadow_234_231" result="shape"/>
</filter>
<filter id="filter1_d_234_231" x="37.8571" y="31" width="40.2857" height="40.2857" filterUnits="userSpaceOnUse" color-interpolation-filters="sRGB">
<feFlood flood-opacity="0" result="BackgroundImageFix"/>
<feColorMatrix in="SourceAlpha" type="matrix" values="0 0 0 0 0 0 0 0 0 0 0 0 0 0 0 0 0 0 127 0" result="hardAlpha"/>
<feOffset dy="3.14286"/>
<feGaussianBlur stdDeviation="1.57143"/>
<feComposite in2="hardAlpha" operator="out"/>
<feColorMatrix type="matrix" values="0 0 0 0 0 0 0 0 0 0 0 0 0 0 0 0 0 0 0.25 0"/>
<feBlend mode="normal" in2="BackgroundImageFix" result="effect1_dropShadow_234_231"/>
<feBlend mode="normal" in="SourceGraphic" in2="effect1_dropShadow_234_231" result="shape"/>
</filter>
<linearGradient id="paint0_linear_234_231" x1="-1.41176" y1="-2" x2="69.5936" y2="146.952" gradientUnits="userSpaceOnUse">
<stop/>
<stop offset="0.42093" stop-color="#1E1E1E"/>
<stop offset="1" stop-color="#666666"/>
</linearGradient>
</defs>
</svg>
