<svg preserveAspectRatio="none" width="100%" height="100%" overflow="visible" style="display: block;" viewBox="0 0 229.814 81.9305" fill="none" xmlns="http://www.w3.org/2000/svg">
<g id="rect bg">
<path id="Vector 37" d="M226.202 77.479C190.011 77.479 154.828 77.4155 117.947 77.4155C102.112 77.4155 85.5892 75.3488 69.6977 75.3488C59.3899 75.3488 51.2168 77.8037 40.9089 77.8037C29.8001 77.8037 14.1093 77.095 3.17286 77.4887" stroke="var(--stroke-0, #FF7B02)" stroke-width="3.76744" stroke-linecap="round" stroke-linejoin="round"/>
<path id="Vector 38" d="M227.93 77.7146C227.84 77.3002 227.93 66.0977 227.93 59.8111C226.884 53.857 227.487 47.7333 227.487 40.9652C227.486 29.3024 227.487 13.5157 227.486 1.88372" stroke="var(--stroke-0, #FF7B02)" stroke-width="3.76744" stroke-linecap="round" stroke-linejoin="round"/>
<path id="Vector 39" d="M224.096 4.17084C202.979 4.17084 182.666 4.17084 159.949 4.17084C140.955 4.17084 122.971 5.65119 103.605 5.65119C94.5405 5.65119 84.646 4.17084 75.5818 4.17084C66.8099 4.17084 52.9231 4.17084 42.8111 4.17084C25.701 4.17084 10.7697 4.17084 2.00016 4.17084" stroke="var(--stroke-0, #FF7B02)" stroke-width="3.76744" stroke-linecap="round" stroke-linejoin="round"/>
<path id="Vector 40" d="M1.88374 80.0468C1.88373 73.6985 1.88374 66.7355 1.88374 60.506C1.88372 53.7361 2.39805 49.3399 1.88373 41.8958C1.88371 29.5175 1.88374 17.8077 1.88372 5.60576" stroke="var(--stroke-0, #FF7B02)" stroke-width="3.76744" stroke-linecap="round" stroke-linejoin="round"/>
<path id="Vector 41" d="M4.62001 6.53631C5.53504 26.2225 5.65124 60.506 5.65124 79.1163" stroke="var(--stroke-0, #FF7B02)" stroke-width="1.88372" stroke-linecap="round" stroke-linejoin="round"/>
<path id="Vector 42" d="M224.165 1.88372C224.165 21.6777 221.531 48.9837 224.918 78.1858" stroke="var(--stroke-0, #FF7B02)" stroke-width="0.94186" stroke-linecap="round" stroke-linejoin="round"/>
<path id="Vector 43" d="M225.312 3.74472C226.201 21.8838 226.646 58.6862 226.646 77.2434" stroke="var(--stroke-0, #FF7B02)" stroke-width="1.88372" stroke-linecap="round" stroke-linejoin="round"/>
</g>
</svg>
